<svg width="30" height="32" viewBox="0 0 30 32" fill="none" xmlns="http://www.w3.org/2000/svg">
<path d="M15.0398 24.3608C13.2624 22.0899 12.2468 20.1286 11.8914 18.3738C10.3171 12.0256 19.8132 12.0256 18.239 18.3738C17.8327 20.1286 16.7663 22.1931 15.0398 24.3608ZM24.6882 29.5736C21.7429 30.8639 18.7976 28.7994 16.3093 26.0124C23.6218 16.7223 19.6101 11.6643 15.0398 11.6643C11.1804 11.6643 9.04762 14.9158 9.9109 18.8383C10.4187 20.9544 11.6882 23.277 13.7703 25.9608C11.4851 28.4898 9.55543 29.7285 7.77809 29.8833C4.2742 30.451 1.53203 26.993 2.85234 23.4318C3.91874 20.6448 10.7234 6.916 11.0281 6.19343C12.0945 4.02573 12.8054 2.11609 15.1921 2.11609C17.4773 2.11609 18.2898 3.9225 19.4069 6.39988C21.9968 11.4062 25.7038 19.0448 27.4811 23.4318C28.2428 25.7543 27.278 28.4898 24.6882 29.5736ZM28.0397 19.8706C18.9499 0.309671 18.4421 0 15.0398 0C11.8406 0 10.4695 2.27092 9.0984 5.16119C1.58281 20.3867 0.922656 22.4512 0.770313 22.7092C-0.956242 27.664 2.69999 31.9994 7.06716 31.9994C8.59059 31.9994 11.3835 31.5865 14.989 27.5608C19.153 32.1542 22.1491 31.9994 22.9108 31.9994C27.3288 31.9994 30.985 27.6124 29.2077 22.7092C29.2585 22.3996 28.0397 19.9222 28.0397 19.8706Z" fill="white"/>
</svg>
