<svg width="64" height="60" viewBox="0 0 64 60" fill="none" xmlns="http://www.w3.org/2000/svg">
<path d="M62.1299 27.1512H57.7662H12.2597V6.89217C12.2597 5.52046 13.2987 4.46531 14.6494 4.46531H22.6494V7.52526C20.4675 7.84181 18.7013 9.74109 18.7013 12.0624V16.7051C18.7013 17.7603 19.5325 18.6044 20.5714 18.6044H27.9481C28.987 18.6044 29.8182 17.7603 29.8182 16.7051V12.0624C29.8182 9.95212 28.3636 8.15835 26.3896 7.63078V2.56603C26.3896 1.51087 25.5584 0.666748 24.5195 0.666748H14.6494C11.3247 0.666748 8.62338 3.41015 8.62338 6.78665V27.0456H6.96104H6.23377H1.87013C0.831169 27.0456 0 27.8898 0 28.9449C0 30.0001 0.831169 30.8442 1.87013 30.8442H4.36364V39.2854C4.36364 45.5109 8.93507 50.6811 14.8571 51.5253L12.5714 56.6955C12.1558 57.6452 12.5714 58.7003 13.5065 59.1224C13.7143 59.2279 14.026 59.3334 14.2338 59.3334C14.961 59.3334 15.5844 58.9114 15.8961 58.2783L18.8052 51.7363H47.3766C47.5844 51.7363 47.7922 51.7363 48.1039 51.7363L51.013 58.2783C51.3247 59.0169 51.9481 59.3334 52.6753 59.3334C52.8831 59.3334 53.1948 59.3334 53.4026 59.1224C54.3377 58.7003 54.7532 57.6452 54.3377 56.6955L51.7403 50.8922C56.3117 49.0984 59.6364 44.5612 59.6364 39.2854V30.8442H62.1299C63.1688 30.8442 64 30.0001 64 28.9449C64 27.9953 63.1688 27.1512 62.1299 27.1512ZM26.0779 14.9114H22.3377V12.0624C22.3377 11.5349 22.7532 11.1128 23.2727 11.1128H25.1429C25.6623 11.1128 26.0779 11.5349 26.0779 12.0624V14.9114ZM56 39.2854C56 44.0337 52.1558 48.0432 47.3766 48.0432H16.6234C11.9481 48.0432 8 44.1392 8 39.2854V30.8442H56V39.2854Z" fill="#52503B"/>
</svg>
