<svg width="46" height="64" viewBox="0 0 46 64" fill="none" xmlns="http://www.w3.org/2000/svg">
<path d="M45.3604 45.8182V45.7143C45.3604 45.7143 45.3604 45.7143 45.3604 45.6104L39.2342 19.9481V5.61039C39.2342 2.49351 36.7838 0 33.7207 0H12.0751C9.01202 0 6.56157 2.49351 6.56157 5.61039V19.9481L0.435446 45.6104C0.435446 45.7143 0.333344 45.9221 0.333344 46.026V62.1299C0.333344 63.1688 1.15016 64 2.17118 64C3.1922 64 4.00902 63.1688 4.00902 62.1299V59.2208C4.41743 58.0779 10.5436 55.2727 23 55.2727C35.4565 55.2727 41.5826 58.1818 41.991 59.2208V62.1299C41.991 63.1688 42.8078 64 43.8288 64C44.8499 64 45.6667 63.1688 45.6667 62.1299V46.1299C45.4625 46.026 45.3604 45.9221 45.3604 45.8182ZM9.72674 22.026H35.967L41.2763 44.2597H4.41743L9.72674 22.026ZM10.1351 5.61039C10.1351 4.57143 10.952 3.63636 12.0751 3.63636H33.7207C34.7417 3.63636 35.6607 4.46753 35.6607 5.61039V18.3896H10.1351V5.61039ZM22.8979 51.6364C17.1802 51.6364 8.70572 52.3636 3.90692 54.7532V47.8961H41.7868V54.7532C37.0901 52.3636 28.6156 51.6364 22.8979 51.6364Z" fill="#52503B"/>
</svg>
