<svg width="36" height="16" viewBox="0 0 36 16" fill="none" xmlns="http://www.w3.org/2000/svg">
<path d="M18.0289 0.5C7.96083 0.5 0 4.73387 0 10.0565C0 10.5403 0.0585355 11.0847 0.234142 11.629C0.585355 12.7177 1.40485 13.5645 2.51703 13.9274C5.50234 14.8952 11.4144 15.5 17.9704 15.5C24.5264 15.5 30.4385 14.8952 33.4238 13.9274C34.536 13.5645 35.3555 12.7177 35.7067 11.6895L35.7652 11.5685C35.8823 11.0242 35.9997 10.5403 35.9997 10.0565C36.0579 4.67339 28.0971 0.5 18.0289 0.5ZM33.8921 10.9637V11.0242C33.775 11.4476 33.4238 11.8105 32.9555 11.9315C30.1458 12.8387 24.2923 13.3831 18.0289 13.3831C11.7656 13.3831 5.91209 12.7782 3.16092 11.9315C2.69264 11.75 2.34142 11.4476 2.22435 11.0242C2.10728 10.7218 2.10728 10.3589 2.10728 10.0565C2.10728 7.93952 4.15602 5.94355 7.37548 4.55242C7.96083 7.15322 9.77544 9.02823 11.9413 9.02823C12.5266 9.02823 12.9949 8.54436 12.9949 7.93952C12.9949 7.33468 12.5266 6.85081 11.9413 6.85081C10.712 6.85081 9.59983 5.58065 9.30715 3.76613C11.0632 3.22177 13.112 2.79839 15.2192 2.61694C15.5705 5.58065 17.3265 8.96774 19.9021 8.96774C20.4874 8.96774 20.9557 8.48387 20.9557 7.87903C20.9557 7.27419 20.4874 6.79032 19.9021 6.79032C18.7899 6.79032 17.5607 4.67339 17.268 2.43548C17.5021 2.43548 17.7948 2.43548 18.0289 2.43548C19.785 2.43548 21.5411 2.55645 23.1215 2.85887C23.2386 6.18548 25.3459 8.90726 27.8629 8.90726C28.4483 8.90726 28.9166 8.42339 28.9166 7.81855C28.9166 7.21371 28.4483 6.72984 27.8629 6.72984C26.5166 6.72984 25.4044 5.15726 25.1703 3.22177C30.3214 4.49194 33.9506 7.03226 33.9506 9.875C34.0092 10.3589 33.9506 10.6613 33.8921 10.9637Z" fill="#52503B"/>
</svg>
