<svg width="36" height="36" viewBox="0 0 36 36" fill="none" xmlns="http://www.w3.org/2000/svg">
<path d="M31.7102 0H10.5983C8.59324 0 7.001 1.57792 7.001 3.56494V6.37013C7.001 8.00649 8.0625 9.35065 9.59576 9.75974V12.0974C9.59576 12.6818 10.0675 13.1494 10.6573 13.1494C11.247 13.1494 11.7187 12.6818 11.7187 12.0974V9.93507H23.8079C24.6336 9.93507 25.3412 10.6364 25.3412 11.4545V24.5455C25.3412 25.3636 24.6336 26.0649 23.8079 26.0649H14.2545C15.8468 24.8377 16.8493 22.9091 16.8493 20.8052C16.8493 20.2208 16.3775 19.7532 15.7878 19.7532H4.2883C3.69859 19.7532 3.22681 20.2208 3.22681 20.8052C3.22681 22.9091 4.22933 24.8377 5.82157 26.0649H4.34728C2.34224 26.0649 0.75 27.6429 0.75 29.6299V32.4351C0.75 34.4221 2.34224 36 4.34728 36H31.6512C33.6562 36 35.2485 34.4221 35.2485 32.4351V3.56494C35.3074 1.63636 33.6562 0 31.7102 0ZM14.6084 21.7987C14.1366 23.9026 12.2495 25.4221 10.0086 25.4221C7.76764 25.4221 5.88054 23.8442 5.40877 21.7987H14.6084ZM33.2434 32.4351C33.2434 33.2532 32.5358 33.9545 31.7102 33.9545H4.34728C3.52167 33.9545 2.81401 33.2532 2.81401 32.4351V29.6299C2.81401 28.8117 3.52167 28.1104 4.34728 28.1104H23.69C25.695 28.1104 27.2873 26.5325 27.2873 24.5455V11.4545C27.2873 9.46753 25.695 7.88961 23.69 7.88961H10.5983C9.77268 7.88961 9.06502 7.18831 9.06502 6.37013V3.56494C9.06502 2.74675 9.77268 2.04545 10.5983 2.04545H31.6512C32.4768 2.04545 33.1845 2.74675 33.1845 3.56494V32.4351H33.2434Z" fill="#52503B"/>
</svg>
