<svg width="36" height="18" viewBox="0 0 36 18" fill="none" xmlns="http://www.w3.org/2000/svg">
<path d="M33.1948 0C34.7143 0 36 1.26 36 2.82V15.12C36 16.74 34.7143 18 33.1948 18H2.80519C1.28571 18 0.0584416 16.74 0 15.24V2.88C0 1.26 1.28571 0 2.80519 0H33.1948ZM17.0065 12.24H10.5779V15.9H17.0065V12.24ZM25.4805 12.24H19.0519V15.9H25.4805V12.24ZM8.53247 12.24H2.1039V15.18C2.1039 15.6 2.3961 15.9 2.80519 15.9H8.53247V12.24ZM33.8961 12.24H27.4675V15.9H33.1948C33.6039 15.9 33.9545 15.6 33.8961 15.18V12.24ZM33.1948 2.1H2.80519C2.3961 2.1 2.1039 2.4 2.1039 2.82V10.2H33.9545V2.88C33.9545 2.46 33.6039 2.1 33.1948 2.1ZM29.7468 4.98C30.3312 4.98 30.7987 5.46 30.7987 6.06C30.7987 6.66 30.3312 7.14 29.7468 7.14H26.0065C25.4221 7.14 24.9545 6.66 24.9545 6.06C24.9545 5.46 25.4221 4.98 26.0065 4.98H29.7468Z" fill="#52503B"/>
</svg>
