<svg width="30" height="36" viewBox="0 0 30 36" fill="none" xmlns="http://www.w3.org/2000/svg">
<path d="M23.6133 0C27.0703 0 29.9414 2.80976 30 6.38049V18.9659C30 20.0195 29.1797 20.839 28.125 20.839H26.8945V33.3073C26.8945 34.7707 25.6641 36 24.1992 36H22.5C21.0352 36 19.8047 34.7707 19.8047 33.3073V1.87317C19.8047 0.819512 20.625 0 21.6797 0H23.6133ZM6.32812 0.0585366C6.91406 0.0585366 7.38281 0.526829 7.38281 1.1122V10.0683H10.6641V1.17073C10.6641 0.585366 11.1328 0.117073 11.7188 0.117073C12.3047 0.117073 12.7148 0.585366 12.7734 1.1122V16.0976C12.7734 16.9756 12.1289 17.6195 11.25 17.6195H9.90234V33.2488C9.90234 34.7122 8.67188 35.9415 7.20703 35.9415H5.56641C4.10156 35.9415 2.87109 34.7122 2.87109 33.2488V17.561H1.52344C0.644531 17.561 0 16.9171 0 16.039V1.1122C0 0.585366 0.410156 0.0585366 0.996094 0.0585366C1.58203 0.0585366 2.05078 0.526829 2.05078 1.1122V10.0098H5.27344V1.1122C5.27344 0.526829 5.74219 0.0585366 6.32812 0.0585366ZM24.8438 20.839H21.8555V33.3073C21.8555 33.6585 22.1484 33.9512 22.5 33.9512H24.1992C24.5508 33.9512 24.8438 33.6 24.8438 33.2488V20.839ZM7.85156 17.6195H4.92188V33.3073C4.92188 33.6585 5.21484 33.9512 5.56641 33.9512H7.20703C7.55859 33.9512 7.85156 33.6585 7.85156 33.3073V17.6195ZM23.5547 2.04878H21.7969V18.7902H27.8906V6.38049C27.8906 3.98049 25.957 2.04878 23.5547 2.04878ZM10.7227 12.0585H2.05078V15.5707H10.7227V12.0585Z" fill="#52503B"/>
</svg>
