<svg width="46" height="64" viewBox="0 0 46 64" fill="none" xmlns="http://www.w3.org/2000/svg">
<path d="M39.7044 0C42.8911 0 45.5639 2.60163 45.6666 5.93171V57.9642C45.6666 61.2943 42.9939 64 39.7044 64H6.29552C3.00603 64 0.333313 61.2943 0.333313 57.9642V5.93171C0.333313 2.60163 3.00603 0 6.19272 0H39.7044ZM39.6016 3.53821H6.19272C4.85637 3.53821 3.8284 4.68293 3.8284 5.93171V57.9642C3.8284 59.3171 4.95916 60.3577 6.19272 60.3577H39.6016C40.938 60.3577 41.966 59.213 41.966 57.9642V5.93171C41.966 4.57886 40.8352 3.53821 39.6016 3.53821ZM34.1534 27.7854C36.0038 27.7854 37.6485 29.3463 37.6485 31.3236C37.6485 33.3008 36.1066 34.8618 34.1534 34.8618C32.2003 34.8618 30.6583 33.3008 30.6583 31.3236C30.6583 29.3463 32.2003 27.7854 34.1534 27.7854Z" fill="#52503B"/>
</svg>
