<svg width="18" height="32" viewBox="0 0 18 32" fill="none" xmlns="http://www.w3.org/2000/svg">
<path d="M11.1286 32H7.19387C6.18497 32 5.37785 31.1447 5.37785 30.0881V18.1132H2.14936C1.14046 18.1132 0.333344 17.2579 0.333344 16.2013V12.7296C0.333344 11.673 1.14046 10.8176 2.14936 10.8176H5.27696V7.6478C5.27696 3.06918 8.00099 0 12.0366 0H15.0633C16.0722 0 16.8793 0.855346 16.8793 1.91195V5.98742C16.8793 7.04403 16.0722 7.89937 15.0633 7.89937H12.995C12.9446 7.89937 12.9446 7.89937 12.8942 7.89937C12.8942 7.94969 12.8942 8 12.8942 8.05031V10.7673H15.7695C16.3749 10.8176 16.8793 11.0692 17.2324 11.4717C17.5855 11.9245 17.7369 12.5283 17.636 13.0818L17.0307 16.5031C16.9298 17.4088 16.1731 18.0629 15.2146 18.0629H12.8942V30.0881C12.8942 31.0943 12.087 32 11.1286 32ZM6.23541 16.3522C6.73986 16.3522 7.14342 16.7547 7.14342 17.2579V30.0881C7.14342 30.1887 7.19387 30.239 7.19387 30.239H11.1286C11.1286 30.239 11.179 30.1887 11.179 30.0881V17.1572C11.179 16.6541 11.5826 16.2516 12.087 16.2516H15.2651C15.2651 16.2516 15.3155 16.2516 15.3155 16.2013V16.1509L15.9209 12.7799C15.9209 12.6792 15.9209 12.6289 15.8704 12.5786C15.8704 12.5786 15.82 12.5283 15.7695 12.5283H12.0366C11.5321 12.5283 11.1286 12.1258 11.1286 11.6226V8.05031C11.1286 7.14465 11.2799 6.13836 12.995 6.13836H15.0633C15.0633 6.13836 15.1137 6.08805 15.1137 5.98742V1.96226C15.1137 1.86164 15.0633 1.81132 15.0633 1.81132H12.087C9.06034 1.81132 7.09298 4.12579 7.09298 7.69811V11.7736C7.09298 12.2767 6.68942 12.6792 6.18497 12.6792H2.14936C2.14936 12.6792 2.09892 12.7296 2.09892 12.8302V16.3019C2.09892 16.4025 2.14936 16.4528 2.14936 16.4528L6.23541 16.3522Z" fill="white"/>
</svg>
