<svg width="36" height="30" viewBox="0 0 36 30" fill="none" xmlns="http://www.w3.org/2000/svg">
<path d="M29.1132 9.14579L29.3079 9.15639C29.7545 9.20558 30.1451 9.42422 30.4012 9.77405L33.7968 14.2861C34.148 14.743 34.2066 15.3712 33.9139 15.8853C33.7382 16.1708 33.5041 16.3993 33.2113 16.5706L35.7873 20.8542C36.08 21.3682 36.08 21.9394 35.7287 22.4534C35.4946 22.9674 34.9677 23.253 34.3822 23.253H30.167V28.2219C30.167 28.7931 29.6987 29.25 29.1132 29.25C28.5278 29.25 28.0595 28.7931 28.0595 28.2219V23.253H23.7857C23.2588 23.253 22.7319 22.9103 22.4392 22.4534C22.1465 21.9965 22.1465 21.3682 22.4392 20.9113L25.0152 16.5706C24.7224 16.4564 24.4883 16.1708 24.3126 15.8853C24.0199 15.3712 24.0785 14.743 24.4297 14.2861L27.8253 9.77405C28.118 9.37425 28.5864 9.14579 29.1132 9.14579ZM9.6766 0.75C10.2035 0.75 10.6718 0.978457 10.9646 1.37826L16.4677 8.57465C16.819 9.03156 16.8775 9.65982 16.5848 10.1738C16.2921 10.6879 15.7652 11.0306 15.1212 11.0306L19.2778 18.1698C19.5706 18.6268 19.5706 19.255 19.2778 19.7119C19.0437 20.1688 18.5168 20.4544 17.9313 20.4544H10.7889V28.1648C10.7889 28.736 10.3206 29.1929 9.73514 29.1929C9.1497 29.1929 8.68135 28.736 8.68135 28.1648V20.4544H1.59751C1.01207 20.4544 0.48517 20.1117 0.192449 19.5977C-0.100271 19.1408 -0.0417271 18.5125 0.250994 18.0556L4.81744 11.0306H4.29054C3.7051 11.0306 3.1782 10.6879 2.88548 10.1738C2.59276 9.65982 2.6513 9.03156 3.00257 8.57465L8.38863 1.37826C8.68135 0.978457 9.1497 0.75 9.6766 0.75ZM29.0547 11.4304L26.4202 14.9143C26.6544 15.0286 26.8886 15.257 27.0057 15.4855C27.2984 15.9424 27.2984 16.5706 27.0057 17.0276L24.5468 21.1969H33.5626L31.1037 17.0276C30.811 16.5706 30.811 15.9424 31.1037 15.4855C31.2208 15.257 31.455 15.0286 31.6892 14.9143L29.0547 11.4304ZM9.6766 3.09168L5.1687 9.08868H5.57851C6.16395 9.08868 6.74939 9.43136 6.98357 9.88828C7.21774 10.3452 7.21774 10.9734 6.92502 11.4304L2.41713 18.4554H17.0532L12.8965 11.3732C12.6038 10.9163 12.6038 10.2881 12.8965 9.83116C13.1892 9.43136 13.6576 9.08868 14.1845 9.08868L9.6766 3.09168Z" fill="#52503B"/>
</svg>
