<svg width="24" height="36" viewBox="0 0 24 36" fill="none" xmlns="http://www.w3.org/2000/svg">
<path d="M20.2376 23.9806C22.3328 21.7634 23.4103 18.7877 23.2307 15.7536L22.2729 3.20908C22.1532 1.40032 20.5968 0 18.7411 0H5.2724C3.41671 0 1.86033 1.40032 1.74061 3.20908L0.782834 15.7536C0.54339 18.7877 1.62089 21.7634 3.77588 23.9806C5.63157 25.9643 8.20559 27.1896 10.9592 27.423V33.8995H6.29004C5.69143 33.8995 5.21254 34.3663 5.21254 34.9498C5.21254 35.5332 5.69143 36 6.29004 36H17.7235C18.3221 36 18.801 35.5332 18.801 34.9498C18.801 34.3663 18.3221 33.8995 17.7235 33.8995H13.0543V27.423C15.8079 27.1896 18.3819 25.9643 20.2376 23.9806ZM5.2724 2.04214H18.7411C19.4594 2.04214 20.1179 2.62561 20.1778 3.32577L20.5968 8.57699H3.47657L3.8956 3.32577C3.8956 2.62561 4.55407 2.04214 5.2724 2.04214ZM2.93783 15.8703L3.29699 10.6775H20.7165L21.0757 15.8703C21.2553 18.3793 20.4172 20.7131 18.6812 22.5802C16.9453 24.389 14.5508 25.4392 11.9768 25.4392C9.4028 25.4392 7.06823 24.4473 5.2724 22.5802C3.5963 20.7715 2.75824 18.3793 2.93783 15.8703Z" fill="#52503B"/>
</svg>
