<svg width="30" height="36" viewBox="0 0 30 36" fill="none" xmlns="http://www.w3.org/2000/svg">
<path d="M28.2524 24.0195L17.6505 18.4675C17.767 18.1169 17.6505 17.6494 17.301 17.4156C16.8932 17.0649 16.2524 17.1234 15.8447 17.5325C15.7282 17.7078 15.2621 17.8247 14.7379 17.7078C14.2718 17.5909 13.9806 17.2403 13.9223 16.7143C13.8641 15.9545 14.2136 15.4286 15.0874 15.0779C15.6699 14.8442 16.0777 14.2597 16.0194 13.6169V9.81818C18.233 9.35065 19.8641 7.36364 19.8641 4.96753C19.8641 2.22078 17.6505 0 14.9126 0C12.1748 0 9.96116 2.22078 9.96116 4.96753C9.96116 7.36364 11.6505 9.35065 13.9223 9.81818L13.9806 13.2662C12.5243 14.026 11.7087 15.3117 11.8835 16.8896C11.9417 17.474 12.1165 17.9416 12.4078 18.4091L1.74757 24.0195C0.873786 24.4286 0.291262 25.2468 0.0582526 26.1818C0.0582526 26.1818 0.0582526 26.1818 0.0582526 26.2403C1.45286e-07 26.474 0 26.7078 0 26.9416V32.7273C0 34.539 1.45631 36 3.26214 36H26.7379C28.5437 36 30 34.539 30 32.7273V26.9416C30 25.6558 29.301 24.5455 28.2524 24.0195ZM12.0583 4.96753C12.0583 3.33117 13.3398 2.04545 14.9709 2.04545C16.6019 2.04545 17.8835 3.33117 17.8835 4.96753C17.8835 6.6039 16.6019 7.88961 14.9709 7.88961C13.3398 7.88961 12.0583 6.6039 12.0583 4.96753ZM14.3301 19.7532L14.3883 19.6948C14.6796 19.7532 14.9126 19.8117 15.2039 19.8117C15.3786 19.8117 15.5534 19.8117 15.7282 19.7532L26.4466 25.3636H3.5534L14.3301 19.7532ZM26.7379 33.9545H3.20388C2.50485 33.9545 1.98058 33.3701 1.98058 32.7273V27.4675H27.9612V32.7273C27.9612 33.3701 27.3786 33.9545 26.7379 33.9545Z" fill="#52503B"/>
</svg>
