<svg width="128" height="45" viewBox="0 0 128 45" fill="none" xmlns="http://www.w3.org/2000/svg">
<path fill-rule="evenodd" clip-rule="evenodd" d="M0 0L128 0.00375313V44.9812L44.7206 45H0V0ZM41.774 2.96497H2.94656V42.035H41.774V2.96497ZM125.065 2.95746H44.7206V42.0275H125.065V2.95746ZM84.4021 23.8249V31.0121C84.4021 32.0967 84.652 32.8849 85.1444 33.3766C85.6441 33.8682 86.2558 34.1159 86.9906 34.1159C87.7217 34.1159 88.3371 33.8682 88.8331 33.3766C89.3292 32.8849 89.5754 32.0967 89.5754 31.0121V23.8249H92.0221V31.0646C92.0221 32.7798 91.5335 34.1009 90.5526 35.0317C89.5717 35.9662 88.3856 36.4354 86.9906 36.4354C85.5807 36.4354 84.3909 35.9662 83.4174 35.0317C82.444 34.1009 81.9554 32.7798 81.9554 31.0646V23.8249H84.4021ZM99.6616 23.6972C100.516 23.6972 101.359 23.8849 102.198 24.2602C103.037 24.6355 103.787 25.1384 104.451 25.769L102.854 27.2477C102.403 26.8799 101.877 26.5834 101.269 26.3545C100.657 26.1293 100.124 26.0167 99.6616 26.0167H99.5236C99.0014 26.0167 98.5165 26.1255 98.0615 26.347C97.6064 26.5684 97.3789 26.9212 97.3789 27.4091C97.3789 27.7882 97.5579 28.0696 97.916 28.246C98.2778 28.4262 98.7888 28.5575 99.449 28.6401L100.445 28.749C101.829 28.9141 102.907 29.2932 103.679 29.8824C104.454 30.4679 104.842 31.3686 104.842 32.5809C104.842 33.7481 104.387 34.6789 103.485 35.3732C102.578 36.0676 101.422 36.4241 100.02 36.4354H99.9115C98.744 36.4354 97.7071 36.1989 96.8008 35.7298C95.8944 35.2606 95.1783 34.6564 94.6487 33.917L96.2413 32.442C96.5621 32.8924 97.0395 33.2827 97.6773 33.6168C98.3151 33.9508 99.0611 34.1159 99.9115 34.1159H100.02C100.739 34.1047 101.314 33.9621 101.747 33.6881C102.179 33.4141 102.396 33.0463 102.396 32.5809C102.396 32.0817 102.198 31.7214 101.81 31.5038C101.418 31.2823 100.851 31.1284 100.105 31.0309L99.1319 30.922C96.3308 30.588 94.9322 29.4508 94.9322 27.4992C94.9322 26.3545 95.3648 25.4425 96.2339 24.7631C97.1029 24.0763 98.1957 23.7235 99.5236 23.6972H99.6616ZM72.7405 23.6991C74.4897 23.6991 75.9817 24.3221 77.2125 25.5607C78.4508 26.8067 79.07 28.308 79.07 30.0682C79.07 31.8246 78.4508 33.3297 77.2125 34.5719C75.9817 35.8105 74.4897 36.4335 72.7405 36.4335C70.9912 36.4335 69.503 35.8105 68.2721 34.5719C67.0413 33.3297 66.4296 31.8246 66.4296 30.0682C66.4296 28.308 67.0413 26.8067 68.2721 25.5607C69.503 24.3221 70.9912 23.6991 72.7405 23.6991ZM56.2714 23.8249V28.8728H61.0754V23.8249H63.5222V36.3115H61.0754V31.1922H56.2714V36.3115H53.8247V23.8249H56.2714ZM115.886 23.8234V26.1428H110.071V28.8713H115.442V31.1907H110.071V33.9906H115.886V36.31H107.625V23.8234H115.886ZM36.2057 8.86451V11.8182H11.753V33.166H33.2704V23.9709H22.3644V21.0171H36.2057V36.1197H8.81767V8.86451H36.2057ZM72.7405 26.0186C71.6402 26.0186 70.7226 26.3976 69.9841 27.1595C69.2419 27.9214 68.8764 28.8897 68.8764 30.0682C68.8764 31.2542 69.2419 32.23 69.9841 32.9844C70.7226 33.7387 71.6402 34.1178 72.7405 34.1178C73.852 34.1178 74.7732 33.7387 75.5154 32.9844C76.2502 32.23 76.6232 31.2542 76.6232 30.0682C76.6232 28.8897 76.2502 27.9214 75.5043 27.1595C74.762 26.3976 73.8408 26.0186 72.7405 26.0186ZM59.3034 8.56952C61.1459 8.56952 62.705 9.26009 63.9843 10.6375L62.388 12.1162C61.5711 11.2943 60.5454 10.8852 59.3034 10.8852C58.2031 10.8852 57.2856 11.2643 56.5471 12.0186C55.8048 12.773 55.4393 13.7488 55.4393 14.9348C55.4393 16.1133 55.8048 17.0854 56.5471 17.8435C57.2856 18.6054 58.2031 18.9882 59.3034 18.9882C60.1426 18.9882 60.8849 18.7555 61.5376 18.2901V16.1321H59.2661V14.278H63.9843V19.2322C62.705 20.6133 61.1459 21.3039 59.3034 21.3039C57.5541 21.3039 56.0659 20.6809 54.8351 19.4386C53.6042 18.2 52.9926 16.695 52.9926 14.9348C52.9926 13.1784 53.6042 11.6734 54.8351 10.4311C56.0659 9.18878 57.5541 8.56952 59.3034 8.56952ZM99.6642 8.54962C100.515 8.54962 101.361 8.73728 102.197 9.11259C103.04 9.48791 103.789 9.98707 104.45 10.6214L102.853 12.1001C102.406 11.7323 101.876 11.432 101.268 11.2068C100.66 10.9817 100.123 10.8691 99.6642 10.8691H99.5224C99.0003 10.8691 98.5154 10.9779 98.0604 11.1993C97.6053 11.417 97.3778 11.7736 97.3778 12.2615C97.3778 12.6405 97.5568 12.922 97.9186 13.0984C98.2804 13.2786 98.7877 13.4099 99.4516 13.4925L100.444 13.5976C101.827 13.7627 102.905 14.1418 103.677 14.731C104.453 15.3165 104.841 16.221 104.841 17.4333C104.841 18.5967 104.39 19.5313 103.484 20.2219C102.581 20.9199 101.425 21.2727 100.019 21.2877H99.9103C98.7429 21.2877 97.706 21.0513 96.7997 20.5822C95.8971 20.1093 95.1809 19.5088 94.6476 18.7694L96.2439 17.2907C96.561 17.7448 97.0421 18.1351 97.6799 18.4654C98.314 18.7994 99.0637 18.9683 99.9103 18.9683H100.019C100.742 18.957 101.313 18.8107 101.745 18.5405C102.178 18.2665 102.394 17.8949 102.394 17.4333C102.394 16.9341 102.197 16.5738 101.809 16.3524C101.417 16.1347 100.854 15.9771 100.108 15.8795L99.1308 15.7744C96.3297 15.4404 94.931 14.2994 94.931 12.3478C94.931 11.2068 95.3637 10.2948 96.2327 9.61176C97.1018 8.92869 98.1984 8.5759 99.5224 8.54962H99.6642ZM70.162 8.67573V15.863C70.162 16.9476 70.4119 17.7358 70.9043 18.2274C71.4041 18.7191 72.0158 18.9668 72.7505 18.9668C73.4816 18.9668 74.097 18.7191 74.5931 18.2274C75.0891 17.7358 75.3353 16.9476 75.3353 15.863V8.67573H77.7821V15.9155C77.7821 17.6307 77.2935 18.9518 76.3125 19.8826C75.3316 20.8171 74.1455 21.2862 72.7505 21.2862C71.3407 21.2862 70.1508 20.8171 69.1774 19.8826C68.2039 18.9518 67.7153 17.6307 67.7153 15.9155V8.67573H70.162ZM91.1203 8.67573V10.9952H85.3055V13.7237H90.6764V16.0431H85.3055V18.843H91.1203V21.1624H82.8587V8.67573H91.1203ZM116.383 8.67423V10.9937H112.978V21.1609H110.531V10.9937H107.129V8.67423H116.383Z" fill="white"/>
</svg>
