<svg width="32" height="32" viewBox="0 0 32 32" fill="none" xmlns="http://www.w3.org/2000/svg">
<path d="M24.0378 0C28.422 0 32 3.53312 32 7.92429V24.0252C32 28.4164 28.4724 32 24.0882 32H7.9622C3.57795 32 0 28.4669 0 24.0757V7.92429C0 3.53312 3.52756 0 7.91181 0H24.0378ZM24.0378 1.76656H7.91181C4.53543 1.76656 1.76378 4.54259 1.76378 7.92429V24.0757C1.76378 27.5079 4.53543 30.2839 7.91181 30.2839H24.0882C27.4646 30.2839 30.2362 27.5079 30.2362 24.0757V7.97476C30.2362 4.54259 27.4646 1.76656 24.0378 1.76656ZM15.9748 8.58044C20.0567 8.58044 23.3827 11.9117 23.3827 16C23.3827 20.0883 20.0567 23.4196 15.9748 23.4196C11.8929 23.4196 8.56693 20.0883 8.56693 16C8.56693 11.9117 11.8929 8.58044 15.9748 8.58044ZM15.9748 10.347C12.8504 10.347 10.3307 12.8707 10.3307 16C10.3307 19.1293 12.8504 21.653 15.9748 21.653C19.0992 21.653 21.6189 19.1293 21.6189 16C21.6189 12.8707 19.0992 10.347 15.9748 10.347ZM24.0882 4.94637C25.1465 4.94637 26.0031 5.80442 26.0031 6.86435C26.0031 7.92429 25.1465 8.78234 24.0882 8.78234C23.0299 8.78234 22.1732 7.92429 22.1732 6.86435C22.1732 5.80442 23.0299 4.94637 24.0882 4.94637Z" fill="white"/>
</svg>
