<svg width="36" height="28" viewBox="0 0 36 28" fill="none" xmlns="http://www.w3.org/2000/svg">
<path d="M23.1429 7.35075L23.4085 7.36064C24.6325 7.45258 25.6325 8.17974 26.1234 9.3081L32.961 25.4851H34.9481C35.5325 25.4851 36 25.8881 36 26.4638C36 27.0394 35.5325 27.5 34.9481 27.5H1.05195C0.467533 27.5 0 27.097 0 26.5213C0 25.9456 0.467533 25.4851 1.05195 25.4851H2.33766L8.2987 11.0928C8.76623 9.88379 9.87662 9.13539 11.2208 9.13539C12.5649 9.19296 13.6753 9.88379 14.2013 11.0928L16.8896 17.3678L20.2208 9.3081C20.6883 8.09915 21.7987 7.35075 23.1429 7.35075ZM23.1429 9.42324L23.0854 9.42506C22.8637 9.43847 22.3566 9.53838 22.0909 10.1141L17.9416 20.0736L20.2792 25.5426H22.2078V24.161C21.039 23.6429 20.2208 22.2612 20.2208 20.5341C20.2208 18.3465 21.5649 16.677 23.2013 16.677C24.8377 16.677 26.1818 18.4041 26.1818 20.5341C26.1818 22.2612 25.4221 23.6429 24.2532 24.161V25.5426H30.7403L24.1948 10.1141C23.961 9.48081 23.3182 9.42324 23.1429 9.42324ZM11.2208 11.2079C11.0455 11.2079 10.461 11.2655 10.1688 11.8987L4.5 25.5426H18.0584L12.2727 11.8987C12.039 11.2655 11.3961 11.2079 11.2208 11.2079ZM23.2013 18.6343C22.8506 18.6343 22.2662 19.3252 22.2662 20.4765C22.2662 21.6279 22.7922 22.3188 23.2013 22.3188C23.6104 22.3188 24.1364 21.6279 24.1364 20.4765C24.1364 19.3252 23.5519 18.6343 23.2013 18.6343ZM30.7987 0.5C32.8442 0.5 34.4805 2.11194 34.4805 4.12687C34.4805 6.14179 32.7857 7.75373 30.7987 7.75373C28.8117 7.75373 27.1169 6.14179 27.1169 4.12687C27.1169 2.11194 28.7532 0.5 30.7987 0.5ZM30.7987 2.57249C29.9221 2.57249 29.1623 3.26333 29.1623 4.18443C29.1623 5.10554 29.8636 5.79638 30.7987 5.79638C31.7338 5.79638 32.4351 5.10554 32.4351 4.18443C32.4351 3.26333 31.6753 2.57249 30.7987 2.57249Z" fill="#52503B"/>
</svg>
