<svg width="36" height="36" viewBox="0 0 36 36" fill="none" xmlns="http://www.w3.org/2000/svg">
<path d="M33.1364 0C34.6558 0 35.9416 1.22927 36 2.75122V33.1902C36 34.7707 34.7143 36 33.1948 36H2.80519C1.22727 36 0 34.7122 0 33.1902V2.75122C0 1.22927 1.22727 0 2.74675 0H33.1364ZM33.1364 1.99024H2.74675C2.33766 1.99024 1.98701 2.34146 1.98701 2.75122V33.1902C1.98701 33.6 2.33766 33.9512 2.74675 33.9512H33.1364C33.5455 33.9512 33.8961 33.6 33.8961 33.1902V2.75122C33.8961 2.34146 33.5455 1.99024 33.1364 1.99024ZM22.4416 29.6195C23.026 29.6195 23.4935 30.0878 23.4935 30.6732C23.4935 31.2585 23.026 31.7268 22.4416 31.7268H21.5649C20.9805 31.7268 20.513 31.2585 20.513 30.6732C20.513 30.0878 20.9805 29.6195 21.5649 29.6195H22.4416ZM27.8766 29.6195C28.461 29.6195 28.9286 30.0878 28.9286 30.6732C28.9286 31.2585 28.461 31.7268 27.8766 31.7268H27C26.4156 31.7268 25.9481 31.2585 25.9481 30.6732C25.9481 30.0878 26.4156 29.6195 27 29.6195H27.8766ZM10.5779 18.3805C13.0325 18.3805 15.0779 20.4293 15.0779 22.8878C15.0779 25.3463 13.0325 27.3951 10.5779 27.3951C8.12338 27.3951 6.07792 25.3463 6.07792 22.8878C6.07792 20.4293 8.12338 18.3805 10.5779 18.3805ZM25.3052 18.3805C27.8182 18.3805 29.8052 20.4293 29.8052 22.8878C29.8052 25.3463 27.7597 27.3951 25.3052 27.3951C22.8507 27.3951 20.8052 25.3463 20.8052 22.8878C20.8052 20.4293 22.8507 18.3805 25.3052 18.3805ZM10.5779 20.4293C9.23377 20.4293 8.12338 21.5415 8.12338 22.8878C8.12338 24.2341 9.23377 25.3463 10.5779 25.3463C11.9221 25.3463 13.0325 24.2341 13.0325 22.8878C13.0325 21.5415 11.9221 20.4293 10.5779 20.4293ZM25.3052 20.4293C23.961 20.4293 22.8507 21.5415 22.8507 22.8878C22.8507 24.2341 23.961 25.3463 25.3052 25.3463C26.6494 25.3463 27.7597 24.2341 27.7597 22.8878C27.7597 21.5415 26.6494 20.4293 25.3052 20.4293ZM10.5779 5.32683C13.0325 5.32683 15.0779 7.31707 15.0779 9.83415C15.0779 12.2927 13.0325 14.3415 10.5779 14.3415C8.12338 14.3415 6.07792 12.2927 6.07792 9.83415C6.07792 7.37561 8.12338 5.32683 10.5779 5.32683ZM25.3052 5.32683C27.8182 5.32683 29.8052 7.31707 29.8052 9.83415C29.8052 12.2927 27.7597 14.3415 25.3052 14.3415C22.8507 14.3415 20.8052 12.2927 20.8052 9.83415C20.8052 7.37561 22.8507 5.32683 25.3052 5.32683ZM10.5779 7.37561C9.23377 7.37561 8.12338 8.4878 8.12338 9.83415C8.12338 11.1805 9.23377 12.2927 10.5779 12.2927C11.9221 12.2927 13.0325 11.1805 13.0325 9.83415C13.0325 8.4878 11.9221 7.37561 10.5779 7.37561ZM25.3052 7.37561C23.961 7.37561 22.8507 8.4878 22.8507 9.83415C22.8507 11.1805 23.961 12.2927 25.3052 12.2927C26.6494 12.2927 27.7597 11.1805 27.7597 9.83415C27.7597 8.4878 26.6494 7.37561 25.3052 7.37561Z" fill="#52503B"/>
</svg>
