<svg width="36" height="36" viewBox="0 0 36 36" fill="none" xmlns="http://www.w3.org/2000/svg">
<path d="M35.8627 20.6722C34.5743 16.577 31.6461 12.1307 27.7224 8.21103C23.8572 4.29132 19.4064 1.42467 15.3069 0.137603C13.8429 -0.330422 12.2031 0.430118 11.676 1.8927L0.197584 32.0218C-0.21236 33.1334 0.0218934 34.3034 0.841781 35.1225C1.42742 35.7075 2.13018 36 2.8915 36C3.24288 36 3.59426 35.9415 3.94564 35.8245L21.5732 29.0966C21.6318 29.0966 21.6318 29.0966 21.6904 29.0381L23.7986 28.2191L34.0472 24.2994C35.5699 23.7729 36.3312 22.1348 35.8627 20.6722ZM3.24288 33.8354C2.77437 34.0109 2.42299 33.7184 2.30587 33.6599C2.18874 33.5429 1.89592 33.2504 2.13018 32.7238L4.58984 26.2885C5.17548 27.5756 6.40531 28.4531 7.92796 28.4531C9.91911 28.4531 11.5589 26.815 11.5589 24.8259C11.5589 22.8368 9.91911 21.1987 7.92796 21.1987C7.40089 21.1987 6.87382 21.3157 6.40531 21.5497L10.9733 9.4981C11.7346 9.96612 12.4959 10.4341 13.2572 11.0192C12.3202 11.6627 11.7346 12.7743 11.7346 13.9443C11.7346 15.9334 13.3744 17.5715 15.3655 17.5715C16.8882 17.5715 18.1766 16.6355 18.7036 15.3484C21.5147 17.981 24.2672 21.1402 26.6097 25.0014L25.2042 25.5279C25.2042 23.5388 23.5644 21.9008 21.5732 21.9008C19.5821 21.9008 17.9423 23.5388 17.9423 25.5279C17.9423 26.464 18.2937 27.283 18.8793 27.9266L3.24288 33.8354ZM6.28818 24.8259C6.28818 23.9484 6.99094 23.2463 7.86939 23.2463C8.74784 23.2463 9.45061 23.9484 9.45061 24.8259C9.45061 25.7035 8.74784 26.4055 7.86939 26.4055C6.99094 26.4055 6.28818 25.7035 6.28818 24.8259ZM16.9467 13.8273C16.9467 13.8858 16.9467 13.8858 16.9467 13.9443C16.9467 14.8219 16.244 15.5239 15.3655 15.5239C14.4871 15.5239 13.7843 14.8219 13.7843 13.9443C13.7843 13.1253 14.3699 12.4818 15.1898 12.3647C15.7755 12.8328 16.3611 13.3008 16.9467 13.8273ZM21.1633 27.049C20.4605 26.8735 19.9335 26.23 19.9335 25.5279C19.9335 24.6504 20.6362 23.9484 21.5147 23.9484C22.3931 23.9484 23.0959 24.6504 23.0959 25.5279C23.0959 25.879 22.9788 26.1715 22.8031 26.4055L21.1633 27.049ZM33.403 22.3688L28.5423 24.2409C25.6727 19.3851 22.1003 15.5239 18.6451 12.5403C18.5865 12.5403 18.5865 12.4818 18.5279 12.4818C17.708 11.7797 16.8882 11.1362 16.0683 10.5512L16.0097 10.4927C14.4871 9.38109 13.023 8.38654 11.676 7.5675L13.55 2.59473C13.6672 2.24371 14.0186 2.0097 14.3699 2.0097C14.4871 2.0097 14.5456 2.0097 14.6628 2.06821C18.4108 3.23827 22.6274 6.04642 26.2583 9.67361C29.8892 13.3008 32.7003 17.5715 33.8716 21.3157C34.0472 21.7252 33.813 22.1933 33.403 22.3688Z" fill="#52503B"/>
</svg>
