<svg width="36" height="34" viewBox="0 0 36 34" fill="none" xmlns="http://www.w3.org/2000/svg">
<path d="M31.4416 6.65453H25.1883V4.60302C25.1883 2.31705 23.3182 0.5 21.0974 0.5H14.9026C12.6234 0.5 10.8117 2.37567 10.8117 4.60302V6.65453H4.55844C2.04545 6.65453 0 8.70604 0 11.2265V16.9707C0 17.5568 0.467533 18.0258 1.05195 18.0258H1.57792V29.1625C1.57792 31.5657 3.50649 33.5 5.9026 33.5H30.0974C32.4935 33.5 34.4221 31.5657 34.4221 29.1625V18.0258H34.9481C35.5325 18.0258 36 17.5568 36 16.9707V11.2265C36 8.70604 33.9545 6.65453 31.4416 6.65453ZM12.8571 4.60302C12.8571 3.48934 13.7922 2.55151 14.9026 2.55151H21.039C22.1494 2.55151 23.0844 3.48934 23.0844 4.60302V6.65453H12.8571V4.60302ZM2.1039 11.2265C2.1039 9.87833 3.21429 8.70604 4.61688 8.70604H31.5C32.8442 8.70604 34.013 9.81972 34.013 11.2265V15.9742H2.1039V11.2265ZM32.3766 29.1039C32.3766 30.3934 31.3247 31.3899 30.0974 31.3899H5.9026C4.61688 31.3899 3.62338 30.3348 3.62338 29.1039V17.9671H10.8117V21.6012C10.8117 22.1874 11.2792 22.6563 11.8636 22.6563C12.4481 22.6563 12.9156 22.1874 12.9156 21.6012V17.9671H23.2013V21.6012C23.2013 22.1874 23.6688 22.6563 24.2532 22.6563C24.8377 22.6563 25.3052 22.1874 25.3052 21.6012V17.9671H32.4935V29.1039H32.3766Z" fill="#52503B"/>
</svg>
