<svg width="18" height="18" viewBox="0 0 18 18" fill="none" xmlns="http://www.w3.org/2000/svg">
<path d="M17.9322 6.78C17.8122 6.42 17.5122 6.15 17.1522 6.09L12.1422 5.31L9.89215 0.57C9.71215 0.21 9.38215 0 8.99215 0C8.60215 0 8.27215 0.21 8.12215 0.57L5.87215 5.34L0.832151 6.15C0.472151 6.21 0.172151 6.48 0.0521506 6.84C-0.0678494 7.2 0.0221506 7.62 0.292151 7.89L3.92215 11.61L3.08215 16.8C3.02215 17.19 3.17215 17.58 3.50215 17.82C3.68215 17.94 3.86215 18 4.04215 18C4.19215 18 4.37215 17.97 4.49215 17.88L8.99215 15.42L13.4622 17.85C13.7922 18.03 14.1822 18 14.4822 17.79C14.8122 17.55 14.9622 17.16 14.9022 16.77L14.0622 11.55L17.6922 7.83C17.9622 7.56 18.0522 7.14 17.9322 6.78ZM17.2422 7.41L13.6422 11.13C13.5222 11.25 13.4622 11.46 13.4922 11.64L14.3322 16.86C14.3622 17.07 14.2722 17.22 14.1522 17.28C14.0922 17.31 13.9422 17.4 13.7622 17.31L9.26215 14.88C9.08215 14.79 8.90215 14.79 8.72215 14.88L4.22215 17.34C4.04215 17.43 3.89215 17.37 3.83215 17.31C3.74215 17.25 3.62215 17.07 3.65215 16.89L4.52215 11.7C4.55215 11.52 4.49215 11.31 4.37215 11.19L0.742151 7.47C0.592151 7.32 0.592151 7.14 0.622151 7.02C0.682151 6.87 0.772151 6.78 0.922151 6.75L5.96215 5.94C6.14215 5.91 6.32215 5.79 6.38215 5.61L8.63215 0.84C8.72215 0.69 8.84215 0.6 8.99215 0.6C9.14215 0.6 9.26215 0.69 9.32215 0.84L11.5722 5.61C11.6622 5.79 11.8122 5.91 11.9922 5.94L17.0022 6.72C17.1522 6.75 17.2722 6.84 17.3022 6.99C17.3922 7.08 17.3922 7.29 17.2422 7.41Z" fill="#52503B"/>
</svg>
