<svg width="36" height="36" viewBox="0 0 36 36" fill="none" xmlns="http://www.w3.org/2000/svg">
<path d="M31.4706 26.3206C34 26.3206 36 28.35 36 30.7853C36 33.2206 33.9412 35.25 31.4706 35.25C29 35.25 26.9412 33.2206 26.9412 30.7853C26.9412 28.35 29 26.3206 31.4706 26.3206ZM33.1176 0.75C33.7059 0.75 34.1765 1.21387 34.1765 1.7937C34.1765 2.37353 33.7059 2.83739 33.1176 2.83739C16 2.83739 2.05882 16.5214 2.11765 33.4525C2.11765 34.0324 1.64706 34.4962 1.05882 34.4962C0.470588 34.4962 0 34.0324 0 33.4525C0 15.4197 14.8235 0.807983 33.1176 0.75ZM33.0588 10.2013C33.6471 10.2013 34.1176 10.6651 34.1176 11.245C34.1176 11.7668 33.7059 12.2307 33.1176 12.2307C21.2353 12.2307 11.5882 21.7399 11.6471 33.3945C11.6471 33.9744 11.1765 34.4382 10.5882 34.4382C10 34.4382 9.52941 33.9744 9.52941 33.3945C9.52941 20.6382 20.0588 10.2013 33.0588 10.2013ZM33.0588 19.5366C33.6471 19.5366 34.1176 20.0004 34.1176 20.5803C34.1176 21.1601 33.7059 21.566 33.1176 21.566C26.5294 21.566 21.1176 26.8424 21.1176 33.3945C21.1176 33.9744 20.6471 34.4382 20.0588 34.4382C19.4706 34.4382 19 33.9744 19 33.3945C19 25.7408 25.2941 19.5366 33.0588 19.5366ZM31.4706 28.408C30.1176 28.408 29 29.5097 29 30.8433C29 32.1769 30.1176 33.2786 31.4706 33.2786C32.8235 33.2786 33.9412 32.1769 33.9412 30.8433C33.9412 29.5097 32.8235 28.408 31.4706 28.408Z" fill="#52503B"/>
</svg>
